<?xml version="1.0" encoding="UTF-8"?>
<svg id="Logo" xmlns="http://www.w3.org/2000/svg" viewBox="0 0 177.59 110.38">
  <defs>
    <style>
      .cls-1 {
        fill: #fff;
      }

      .cls-2 {
        fill: #ffc42e;
      }
    </style>
  </defs>
  <g>
    <path class="cls-2" d="m37.44,35.52v9.57h-8.6v54.64h8.6v9.57H9.69v-9.57h8.6v-54.64h-8.6v-9.57s27.75,0,27.75,0Z"/>
    <path class="cls-2" d="m94.76,39.55c4.59,2.69,8.14,6.53,10.65,11.51,2.51,4.98,3.76,10.84,3.76,17.59v7.53c0,6.74-1.26,12.61-3.76,17.59-2.51,4.98-6.06,8.82-10.65,11.51s-9.97,4.03-16.13,4.03h-25.6V35.52h25.6c6.16,0,11.54,1.34,16.13,4.03Zm-31.19,5.54v54.64h15.06c6.38,0,11.32-1.99,14.79-5.97,3.47-3.98,5.22-9.84,5.22-17.59v-7.53c0-7.6-1.7-13.42-5.11-17.48s-8.37-6.08-14.9-6.08h-15.06Z"/>
    <path class="cls-2" d="m156.55,55.2c3.19,1.29,5.67,3.09,7.42,5.38,1.75,2.29,2.64,4.84,2.64,7.64l-.11,1.94h-10v-.97c0-5.24-4.05-7.85-12.15-7.85s-12.05,2.4-12.05,7.21c0,2.23,1.14,3.85,3.44,4.89,2.29,1.04,5.81,2.02,10.54,2.96,4.52.94,8.23,1.9,11.13,2.9,2.9,1,5.38,2.58,7.42,4.73,2.04,2.15,3.07,5.06,3.07,8.71,0,5.88-2.01,10.29-6.02,13.23s-9.79,4.41-17.32,4.41h-1.61c-4.52,0-8.46-.7-11.83-2.1-3.37-1.4-5.97-3.3-7.8-5.7s-2.71-5.11-2.64-8.12v-2.37h10v1.08c0,6.1,5.13,9.14,15.38,9.14,3.01,0,5.72-.68,8.12-2.04,2.4-1.37,3.6-3.23,3.6-5.59,0-2.01-.67-3.58-1.99-4.73s-2.96-2.01-4.89-2.58-4.62-1.15-8.07-1.72c-4.44-.86-8.03-1.74-10.76-2.64-2.72-.89-5.06-2.42-6.99-4.57-1.94-2.15-2.9-5.09-2.9-8.82,0-5.09,2.01-9.09,6.02-11.99s9.5-4.36,16.46-4.36h.97c4.09,0,7.72.65,10.92,1.94h0Z"/>
  </g>
  <g>
    <path class="cls-1" d="m14.38,1.94c1.36.75,2.41,1.82,3.15,3.22s1.11,3.05,1.11,4.96h-3.34c0-1.98-.49-3.52-1.47-4.62s-2.39-1.65-4.23-1.65c-2.04,0-3.6.63-4.67,1.89s-1.6,3.12-1.6,5.57v3.07c0,2.43.52,4.28,1.57,5.56s2.59,1.91,4.63,1.91c1.91,0,3.37-.55,4.38-1.64,1.01-1.09,1.52-2.61,1.52-4.57h3.2c0,1.88-.37,3.52-1.11,4.91s-1.79,2.45-3.15,3.2-2.95,1.12-4.77,1.12c-3.02,0-5.38-.93-7.07-2.78-1.69-1.85-2.54-4.42-2.54-7.72v-3.07c0-3.27.85-5.84,2.54-7.7C4.23,1.75,6.59.82,9.61.82c1.82,0,3.41.37,4.77,1.12Z"/>
    <path class="cls-1" d="m36.09,9.03c1.46,1.5,2.18,3.55,2.18,6.17v1.26c0,2.61-.72,4.67-2.15,6.17-1.43,1.5-3.38,2.25-5.86,2.25s-4.43-.75-5.86-2.25-2.15-3.55-2.15-6.17v-1.26c0-2.61.73-4.67,2.18-6.17,1.46-1.5,3.4-2.25,5.83-2.25s4.37.75,5.83,2.25Zm-9.37,1.87c-.84,1.05-1.26,2.58-1.26,4.6v.65c0,1.98.42,3.5,1.24,4.57s2.02,1.6,3.56,1.6,2.68-.53,3.53-1.58,1.28-2.58,1.28-4.58v-.65c0-1.98-.42-3.5-1.24-4.57-.83-1.07-2.02-1.6-3.56-1.6s-2.7.52-3.54,1.57Z"/>
    <path class="cls-1" d="m55.96,8.32c1.09,1.02,1.64,2.52,1.64,4.5v11.72h-3.2v-11.14c0-2.7-1.23-4.06-3.68-4.06-.82,0-1.58.21-2.28.65-.71.43-1.27,1.02-1.7,1.76-.43.74-.65,1.55-.65,2.44v10.36h-3.2V7.12h2.32l.44,2.56c1.46-1.93,3.39-2.9,5.83-2.9,1.91,0,3.41.51,4.5,1.53h0Z"/>
    <path class="cls-1" d="m76.17,8.32c1.09,1.02,1.64,2.52,1.64,4.5v11.72h-3.2v-11.14c0-2.7-1.23-4.06-3.68-4.06-.82,0-1.58.21-2.28.65-.71.43-1.27,1.02-1.7,1.76-.43.74-.65,1.55-.65,2.44v10.36h-3.2V7.12h2.32l.44,2.56c1.46-1.93,3.39-2.9,5.83-2.9,1.91,0,3.41.51,4.5,1.53h0Z"/>
    <path class="cls-1" d="m94.08,7.69c1.1.6,1.96,1.46,2.57,2.57.61,1.11.92,2.41.92,3.89v2.42h-12.17c.04,1.84.48,3.26,1.3,4.26s2.03,1.5,3.65,1.5c1.43,0,2.49-.42,3.17-1.26.68-.84,1.02-1.84,1.02-3h3.03c0,1.36-.31,2.56-.94,3.58s-1.49,1.82-2.59,2.39-2.36.85-3.77.85h-.14c-2.45,0-4.39-.79-5.81-2.37s-2.13-3.69-2.13-6.32v-.68c0-1.73.32-3.25.95-4.57.64-1.32,1.54-2.34,2.73-3.07,1.18-.73,2.57-1.09,4.16-1.09h.24c1.43,0,2.7.3,3.8.9Zm-7.12,2.85c-.81.79-1.3,1.98-1.48,3.54h8.93v-.41c0-1.3-.39-2.34-1.18-3.14-.78-.79-1.82-1.19-3.12-1.19s-2.34.4-3.15,1.19Z"/>
    <path class="cls-1" d="m112.79,7.69c1.1.6,1.96,1.45,2.57,2.54s.92,2.34.92,3.75h-3.17c0-1.41-.36-2.53-1.07-3.37-.72-.84-1.74-1.26-3.08-1.26-1.41,0-2.53.47-3.36,1.41s-1.24,2.23-1.24,3.87v1.84c0,1.98.41,3.45,1.23,4.41.82.96,1.98,1.45,3.48,1.45,1.39,0,2.43-.42,3.12-1.24s1.04-1.95,1.04-3.36h3.07c0,2.18-.65,3.92-1.96,5.21s-3.05,1.94-5.23,1.94h-.27c-1.54,0-2.9-.36-4.06-1.07s-2.05-1.72-2.68-3.02c-.62-1.3-.94-2.8-.94-4.53v-.82c0-1.73.32-3.24.95-4.55s1.53-2.32,2.69-3.03c1.16-.72,2.49-1.07,3.99-1.07h.27c1.39,0,2.63.3,3.73.9h0Z"/>
    <path class="cls-1" d="m124.53,7.12h4.06v2.56h-4.06v10.39c0,.82.16,1.41.48,1.77s.81.55,1.47.55c.59,0,1.3-.17,2.11-.51v2.39c-.82.41-1.87.61-3.17.61s-2.36-.4-3.05-1.19-1.04-2.06-1.04-3.78v-10.22h-1.91v-2.56h2.01l1.09-5.56h2.01v5.56Z"/>
    <path class="cls-1" d="m135.84,0v2.96h-3.34V0h3.34Zm-.07,7.12v17.41h-3.2V7.12s3.2,0,3.2,0Z"/>
    <path class="cls-1" d="m154.52,8.32c1.09,1.02,1.64,2.52,1.64,4.5v11.72h-3.2v-11.14c0-2.7-1.23-4.06-3.68-4.06-.82,0-1.58.21-2.28.65s-1.27,1.02-1.7,1.76c-.43.74-.65,1.55-.65,2.44v10.36h-3.2V7.12h2.32l.44,2.56c1.46-1.93,3.39-2.9,5.83-2.9,1.91,0,3.41.51,4.5,1.53h0Z"/>
    <path class="cls-1" d="m176.67,6.9c-.61.78-1.47,1.29-2.56,1.52l-.07.1c1.13,1,1.7,2.25,1.7,3.75,0,1.64-.61,2.95-1.84,3.95-1.23,1-2.9,1.5-5.01,1.5h-2.32c-.68,0-1.25.18-1.7.53-.45.35-.68.8-.68,1.35s.21.98.65,1.3,1.01.48,1.74.48h6.58c1.34,0,2.41.42,3.22,1.26.81.84,1.21,1.91,1.21,3.2,0,1.54-.59,2.78-1.76,3.71-1.17.93-2.74,1.4-4.72,1.4h-6.85c-.77,0-1.48-.2-2.13-.61s-1.16-.93-1.53-1.55-.56-1.27-.56-1.93c0-.95.23-1.78.7-2.49s1.08-1.23,1.86-1.57c-1.05-.64-1.57-1.58-1.57-2.83,0-.82.24-1.52.72-2.11.48-.59,1.15-1.03,2.01-1.33-1.52-.84-2.28-2.26-2.28-4.26,0-1.68.62-3.02,1.86-4s2.96-1.48,5.16-1.48h.14c1.27,0,2.43.19,3.48.58,1.61-.79,2.53-1.92,2.76-3.37h2.73c0,1.16-.31,2.13-.92,2.91h0Zm-11.48,17.53c-.55,0-1.01.19-1.4.58s-.58.85-.58,1.4.19,1.01.58,1.4.85.58,1.4.58h6.58c.73,0,1.35-.21,1.87-.63.52-.42.78-.9.78-1.45s-.19-1.02-.58-1.36-.93-.51-1.64-.51h-7.02,0Zm.53-14.4c-.72.47-1.07,1.21-1.07,2.23s.36,1.76,1.07,2.22c.72.45,1.68.68,2.88.68s2.17-.23,2.9-.68,1.09-1.19,1.09-2.22-.36-1.77-1.09-2.23-1.69-.7-2.9-.7-2.16.23-2.88.7Z"/>
  </g>
</svg>