<?xml version="1.0" encoding="UTF-8"?>
<svg id="Layer_1" data-name="Layer 1" xmlns="http://www.w3.org/2000/svg" viewBox="0 0 20.5 20.5">
  <defs>
    <style>
      .cls-1 {
        fill: #262199;
        fill-rule: evenodd;
      }
    </style>
  </defs>
  <path class="cls-1" d="m6.01,3c-1.06,0-1.93.02-2.65.12-.9.12-1.66.38-2.26.98-.6.6-.86,1.36-.98,2.26C0,7.23,0,8.33,0,9.7v4.11c0,1.37,0,2.47.12,3.34.12.9.38,1.66.98,2.26.6.6,1.36.86,2.26.98.87.12,1.97.12,3.34.12h7.11c1.37,0,2.47,0,3.34-.12.9-.12,1.66-.38,2.26-.98.6-.6.86-1.36.98-2.26.12-.87.12-1.97.12-3.34v-4.11c0-1.37,0-2.47-.12-3.34-.12-.9-.38-1.66-.98-2.26-.6-.6-1.36-.86-2.26-.98-.72-.1-1.6-.11-2.65-.12-.13-1.68-1.53-3-3.24-3h-2c-1.71,0-3.11,1.32-3.24,3Zm1.51,0h5.46c-.12-.85-.85-1.5-1.73-1.5h-2c-.88,0-1.61.65-1.73,1.5Z"/>
</svg>