<?xml version="1.0" encoding="UTF-8"?>
<svg id="Layer_1" data-name="Layer 1" xmlns="http://www.w3.org/2000/svg" viewBox="0 0 177.27 150">
  <defs>
    <style>
      .cls-1 {
        fill: #fff;
      }
    </style>
  </defs>
  <g id="Group_932" data-name="Group 932">
    <g id="Line_114" data-name="Line 114">
      <path class="cls-1" d="m167.05,20.45H10.23C4.58,20.45,0,15.88,0,10.23S4.58,0,10.23,0h156.82c5.65,0,10.23,4.58,10.23,10.23s-4.58,10.23-10.23,10.23Z"/>
    </g>
    <g id="Line_115" data-name="Line 115">
      <path class="cls-1" d="m167.05,81.82H10.23c-5.65,0-10.23-4.58-10.23-10.23s4.58-10.23,10.23-10.23h156.82c5.65,0,10.23,4.58,10.23,10.23s-4.58,10.23-10.23,10.23Z"/>
    </g>
    <g id="Line_116" data-name="Line 116">
      <path class="cls-1" d="m167.05,150H10.23c-5.65,0-10.23-4.58-10.23-10.23s4.58-10.23,10.23-10.23h156.82c5.65,0,10.23,4.58,10.23,10.23s-4.58,10.23-10.23,10.23Z"/>
    </g>
  </g>
</svg>