<?xml version="1.0" encoding="UTF-8"?>
<svg id="Layer_1" data-name="Layer 1" xmlns="http://www.w3.org/2000/svg" viewBox="0 0 14.87 20.28">
  <defs>
    <style>
      .cls-1 {
        fill: #262199;
      }
    </style>
  </defs>
  <path class="cls-1" d="m7.47,3.92c.62,0,1.2.12,1.76.29l2.44-3.44c-.36-.05-.7-.17-.93-.39-.24-.23-.62-.36-1.03-.36s-.79.13-1.03.36c-.3.28-.74.44-1.23.44s-.93-.16-1.23-.44c-.24-.23-.62-.36-1.03-.36s-.79.13-1.03.36c-.23.22-.58.35-.95.4l2.43,3.43c.56-.18,1.17-.28,1.84-.28Zm7.23,10.21c-.9-5.02-3.24-9.26-7.23-9.26S1.53,8.94.24,14.13c-1.01,4.06,1.16,6.16,7.23,6.16,6.49,0,7.96-2.03,7.23-6.16Zm-4.53-4.57h-1.52c.08.1.16.2.22.33.08.17.15.35.19.54h1.12v.93h-1.09c-.04.3-.11.59-.26.83-.2.32-.48.57-.85.75-.02,0-.04.01-.06.02l1.77,3.07h-1.23l-1.58-2.84c-.05,0-.1.02-.16.02h-1.52v-.94h1.61c.25,0,.47-.06.66-.17.19-.11.34-.27.44-.48.04-.08.07-.17.1-.27h-2.8v-.93h2.79c-.02-.08-.04-.16-.08-.23-.1-.21-.25-.36-.44-.48-.18-.11-.39-.16-.62-.16h-1.65v-.94h4.97v.94Z"/>
</svg>